#!OML:ASF E:/inclinewalkrobotboard/Project1/Captureday1/Session1/subject1.ASF
:FULLY-SPECIFIED
:DEGREES
276
root 0 0 0 1.7612713700917904 -27.747972053407146 -0.2658003444317046
lowerback 17.963111306800002 1.0891564895808863 -0.23212307067208537
upperback 5.04096915871675 1.0825490816837777 0.06698936269820088
thorax -4.61707146675521 0.4990982004339355 -0.03836775388324731
lowerneck -5.12706165839513 -5.573917975087793 -7.378156984835462
upperneck -3.9457876387542203 -7.139883094534037 10.346082565460454
head 0.23110865328791785 -3.5313336040717394 4.144988634117982
rclavicle -3.5037641462515385E-15 5.164534111641268E-17
rhumerus -8.645009094344472 -4.289209581996072 -69.14662762422002
rradius 7.9331603235529045
rwrist 44.45614518208826
rhand -5.543000368654688 21.30507024442234
rfingers 7.1250200000000365
rthumb 20.232699565248446 -8.40636172329901
lclavicle -2.2533994790044772E-15 8.193179828637326E-16
lhumerus -13.093287356159486 -48.235092198004175 92.58125612244785
lradius 112.7902320467546
lwrist 30.95473220140921
lhand -11.87387834067049 38.82582894802468
lfingers 7.1226579432042225
lthumb 14.27848300256673 55.364070389692166
rfemur -28.759556765447833 3.6357816982501525 11.319408200813317
rtibia 54.42768582130772
rfoot -7.869536367821332 -12.713912670442081
rtoes -2.750434701233352
lfemur -25.133038341682457 1.1429878086183258 -11.007437640096462
ltibia 53.58441687806629
lfoot -8.512468056747364 0.5971625658584943
ltoes -9.737422924715936
277
root 0 0 0 1.963777524591324 -26.922726941230195 -0.5151585439436501
lowerback 17.98574933693434 1.1699555794135685 -0.3247634291752368
upperback 5.104906638484941 1.1759920541867164 -0.01619945329511907
thorax -4.5681609962507235 0.546038241255351 -0.08308367734100525
lowerneck -4.843522686908071 -5.795493750449268 -7.562707580600373
upperneck -3.891764401900149 -7.4721200813038315 10.716982380816807
head 0.2394342668852758 -3.6874167678140806 4.276668793013255
rclavicle -3.4920313640881086E-15 4.1621167316255176E-17
rhumerus -8.47282498704218 -4.453701157250405 -69.0353745609465
rradius 7.938012343707761
rwrist 44.478056566817955
rhand -5.588918542331783 21.312043834004015
rfingers 7.1250200000000365
rthumb 20.18874365303305 -8.401470984696711
lclavicle -1.8152436545916103E-15 6.685520993891111E-16
lhumerus -6.491726890605624 -45.54539317215723 88.01865594216544
lradius 116.48357809250521
lwrist 36.468173409754314
lhand -15.111454592132882 39.8913305088892
lfingers 7.1282476351659
lthumb 11.173346226738962 54.87286863605035
rfemur -28.958662928825454 3.4178494515841384 11.305946924739478
rtibia 54.81655230561668
rfoot -7.691334551327869 -12.742809971445583
rtoes -2.6305718977997423
lfemur -24.807561283741627 1.0601255999748633 -11.072384060983294
ltibia 53.102647917268996
lfoot -8.687022586169224 0.8993575833273164
ltoes -9.540318912377417
278
root 0 0 0 2.0958911924242423 -26.120914123054924 -0.7516085595100872
lowerback 17.918119312896984 1.2410456241693044 -0.3728894935282798
upperback 5.113694715528746 1.265432398802373 -0.08255611546555386
thorax -4.526800597755559 0.5907301857019986 -0.13320188885783646
lowerneck -4.7005745441524605 -5.941488965699708 -7.676553747449899
upperneck -3.7448720520641725 -7.6940776256168935 10.938523299537415
head 0.28956799827046353 -3.7892501510703083 4.353468809572407
rclavicle -3.4806875116375883E-15 3.60569190236559E-17
rhumerus -8.275286452258404 -4.563815334656283 -68.93430370727837
rradius 8.064702971629707
rwrist 44.41025440875847
rhand -5.675732806998191 21.258152965702234
rfingers 7.1250200000000365
rthumb 20.105560998445345 -8.456368959677995
lclavicle -1.265831422051808E-15 4.652252990565968E-16
lhumerus 1.8244617422891114 -41.878086197333204 82.15017375791618
lradius 120.55652593680989
lwrist 43.093370856977494
lhand -19.165732301556897 41.11555956165964
lfingers 7.134362685436931
lthumb 7.278633736145731 54.233067776303315
rfemur -29.137688407030147 3.1907040515694343 11.308865163335433
rtibia 55.23899765964521
rfoot -7.50945229623103 -12.73870969333232
rtoes -2.5110163491992066
lfemur -24.445253261869837 1.007316391906243 -11.160964321568917
ltibia 52.641009550674646
lfoot -8.922460473519273 1.2218989677932335
ltoes -9.349693098934122
279
root 0 0 0 2.1574323326038987 -25.446445101803512 -0.9477004482637983
lowerback 17.795679077285 1.292514501448799 -0.3848856057815233
upperback 5.080026613196879 1.3358959870276694 -0.1253428845803628
thorax -4.498392996393603 0.6258334836014487 -0.17619860677866406
lowerneck -4.68230494777566 -6.0220430275667525 -7.727986403389327
upperneck -3.5533754915585494 -7.818853717463303 11.03283402365238
head 0.3632058178075255 -3.843869769537824 4.3831437933758695
rclavicle -3.4674611504624483E-15 3.398259658585757E-17
rhumerus -8.133343941840184 -4.556803009071848 -68.89073102924102
rradius 8.286541728581973
rwrist 44.26069442633701
rhand -5.7743955304268475 21.152975570678084
rfingers 7.1250200000000365
rthumb 20.010911681553544 -8.560835779293388
lclavicle -6.85619208728291E-16 2.569288587721156E-16
lhumerus 9.941338188598287 -37.97508248261509 76.29204361721467
lradius 123.87857629281385
lwrist 49.164074260584144
lhand -23.071888995457165 42.18255519990091
lfingers 7.1391372794044505
lthumb 3.5175817210121636 53.55870666136243
rfemur -29.20640114665743 3.0016827690990153 11.35882033482047
rtibia 55.579071502625055
rfoot -7.371122944615772 -12.70652149876813
rtoes -2.399166675034209
lfemur -24.02714879466525 0.9519503545739054 -11.269986804565004
ltibia 52.14375962635151
lfoot -9.188183528111 1.5546291037664233
ltoes -9.159242851660425
280
root 0 0 0 2.1524602336919965 -25.009386728520198 -1.0770145695338673
lowerback 17.65946726951924 1.3180098155951816 -0.36984418939177477
upperback 5.021570622266485 1.376518848897439 -0.14093241517495936
thorax -4.486485700388961 0.646012204041984 -0.2029557265357032
lowerneck -4.760168863508038 -6.049479443453826 -7.72780641964121
upperneck -3.3726167801989337 -7.863269848894323 11.030045640490398
head 0.43873496268496304 -3.8600508428532043 4.376618168286045
rclavicle -3.4489123780801743E-15 3.2861675362541046E-17
rhumerus -8.118353199747125 -4.423939550661112 -68.93217587450334
rradius 8.51837005364439
rwrist 44.08461897749466
rhand -5.843580791729789 21.037931646162964
rfingers 7.1250200000000365
rthumb 19.944286098453166 -8.67358488138322
lclavicle -2.2988776458717004E-16 1.0479628277325947E-16
lhumerus 15.447366820963474 -35.06478978489916 72.21457117763897
lradius 125.62567567184678
lwrist 52.95280104465119
lhand -25.67486725663803 42.81355600121206
lfingers 7.141744124495159
lthumb 1.0062250407207678 53.064080622721285
rfemur -29.10304997881982 2.8999546218484697 11.470041756658789
rtibia 55.719898199456225
rfoot -7.299366678309216 -12.656615341149935
rtoes -2.293439534904098
lfemur -23.567744576516823 0.8331381830479505 -11.373634686382534
ltibia 51.5314936017465
lfoot -9.397689495074019 1.873644041276079
ltoes -8.952927026066131
